<svg width="461" height="529" viewBox="0 0 461 529" fill="none" xmlns="http://www.w3.org/2000/svg">
<circle cx="185.154" cy="343.126" r="141.84" transform="rotate(-112.374 185.154 343.126)" fill="#BEE3FF"/>
<circle cx="383.08" cy="290.442" r="59.6473" transform="rotate(-112.374 383.08 290.442)" fill="#BEE3FF"/>
<circle cx="310.097" cy="128.721" r="98.6092" transform="rotate(-112.374 310.097 128.721)" fill="#BEE3FF"/>
<mask id="path-4-outside-1_174_1524" maskUnits="userSpaceOnUse" x="324.439" y="231.257" width="118.788" height="118.788" fill="black">
<rect fill="white" x="324.439" y="231.257" width="118.788" height="118.788"/>
<path d="M356.236 261.645C363.779 254.603 373.74 250.731 384.058 250.83C394.377 250.929 404.262 254.991 411.669 262.176C419.075 269.362 423.435 279.119 423.847 289.43C424.259 299.741 420.691 309.815 413.881 317.568C407.071 325.321 397.541 330.159 387.264 331.08C376.986 332.002 366.747 328.936 358.667 322.519C350.587 316.101 345.283 306.822 343.854 296.602C342.425 286.383 344.98 276.005 350.99 267.617L383.673 291.035L356.236 261.645Z"/>
</mask>
<path d="M356.236 261.645C363.779 254.603 373.74 250.731 384.058 250.83C394.377 250.929 404.262 254.991 411.669 262.176C419.075 269.362 423.435 279.119 423.847 289.43C424.259 299.741 420.691 309.815 413.881 317.568C407.071 325.321 397.541 330.159 387.264 331.08C376.986 332.002 366.747 328.936 358.667 322.519C350.587 316.101 345.283 306.822 343.854 296.602C342.425 286.383 344.98 276.005 350.99 267.617L383.673 291.035L356.236 261.645Z" fill="#B2DFDB"/>
<path d="M356.236 261.645C363.779 254.603 373.74 250.731 384.058 250.83C394.377 250.929 404.262 254.991 411.669 262.176C419.075 269.362 423.435 279.119 423.847 289.43C424.259 299.741 420.691 309.815 413.881 317.568C407.071 325.321 397.541 330.159 387.264 331.08C376.986 332.002 366.747 328.936 358.667 322.519C350.587 316.101 345.283 306.822 343.854 296.602C342.425 286.383 344.98 276.005 350.99 267.617L383.673 291.035L356.236 261.645Z" stroke="#9BD5CF" stroke-width="10" mask="url(#path-4-outside-1_174_1524)"/>
<mask id="path-5-outside-2_174_1524" maskUnits="userSpaceOnUse" x="8.53823" y="164.843" width="352.71" height="352.71" fill="black">
<rect fill="white" x="8.53823" y="164.843" width="352.71" height="352.71"/>
<path d="M264.66 251.576C287.694 271.943 302.015 300.387 304.659 331.02C307.304 361.653 298.069 392.131 278.866 416.144C259.664 440.157 231.964 455.869 201.499 460.026C171.034 464.183 140.137 456.467 115.203 438.477C90.2686 420.486 73.206 393.597 67.5465 363.375C61.8869 333.154 68.0638 301.913 84.7986 276.119C101.533 250.325 127.545 231.952 157.45 224.804C187.354 217.656 218.862 222.279 245.453 237.717L185.301 341.324L264.66 251.576Z"/>
</mask>
<path d="M264.66 251.576C287.694 271.943 302.015 300.387 304.659 331.02C307.304 361.653 298.069 392.131 278.866 416.144C259.664 440.157 231.964 455.869 201.499 460.026C171.034 464.183 140.137 456.467 115.203 438.477C90.2686 420.486 73.206 393.597 67.5465 363.375C61.8869 333.154 68.0638 301.913 84.7986 276.119C101.533 250.325 127.545 231.952 157.45 224.804C187.354 217.656 218.862 222.279 245.453 237.717L185.301 341.324L264.66 251.576Z" fill="#B2DFDB"/>
<path d="M264.66 251.576C287.694 271.943 302.015 300.387 304.659 331.02C307.304 361.653 298.069 392.131 278.866 416.144C259.664 440.157 231.964 455.869 201.499 460.026C171.034 464.183 140.137 456.467 115.203 438.477C90.2686 420.486 73.206 393.597 67.5465 363.375C61.8869 333.154 68.0638 301.913 84.7986 276.119C101.533 250.325 127.545 231.952 157.45 224.804C187.354 217.656 218.862 222.279 245.453 237.717L185.301 341.324L264.66 251.576Z" stroke="#9BD5CF" stroke-width="20" mask="url(#path-5-outside-2_174_1524)"/>
<mask id="path-6-outside-3_174_1524" maskUnits="userSpaceOnUse" x="203.726" y="21.7575" width="214.741" height="214.233" fill="black">
<rect fill="white" x="203.726" y="21.7575" width="214.741" height="214.233"/>
<path d="M363.966 182.611C350.132 196.261 331.58 204.07 312.149 204.422C292.718 204.773 273.896 197.64 259.578 184.499C245.26 171.358 236.542 153.215 235.23 133.826C233.917 114.436 240.11 95.2834 252.526 80.3327C264.943 65.382 282.632 55.7775 301.933 53.507C321.234 51.2365 340.67 56.4739 356.216 68.1351C371.763 79.7964 382.231 96.9888 385.454 116.154C388.677 135.319 384.408 154.99 373.53 171.095L310.78 128.711L363.966 182.611Z"/>
</mask>
<path d="M363.966 182.611C350.132 196.261 331.58 204.07 312.149 204.422C292.718 204.773 273.896 197.64 259.578 184.499C245.26 171.358 236.542 153.215 235.23 133.826C233.917 114.436 240.11 95.2834 252.526 80.3327C264.943 65.382 282.632 55.7775 301.933 53.507C321.234 51.2365 340.67 56.4739 356.216 68.1351C371.763 79.7964 382.231 96.9888 385.454 116.154C388.677 135.319 384.408 154.99 373.53 171.095L310.78 128.711L363.966 182.611Z" fill="#B2DFDB"/>
<path d="M363.966 182.611C350.132 196.261 331.58 204.07 312.149 204.422C292.718 204.773 273.896 197.64 259.578 184.499C245.26 171.358 236.542 153.215 235.23 133.826C233.917 114.436 240.11 95.2834 252.526 80.3327C264.943 65.382 282.632 55.7775 301.933 53.507C321.234 51.2365 340.67 56.4739 356.216 68.1351C371.763 79.7964 382.231 96.9888 385.454 116.154C388.677 135.319 384.408 154.99 373.53 171.095L310.78 128.711L363.966 182.611Z" stroke="#9BD5CF" stroke-width="10" mask="url(#path-6-outside-3_174_1524)"/>
<path d="M294.048 99.1528C296.978 97.9243 303.741 90.1085 310.73 106.782C316.631 120.859 313.996 136.391 311.348 140.427C307.389 139.161 294.692 130.698 288.562 116.074C281.458 99.1272 291.117 100.381 294.048 99.1528Z" fill="#F0DB4F"/>
<path d="M293.693 98.0218C290.762 99.2503 283.999 107.066 277.01 90.3922C271.11 76.3151 273.744 60.7835 276.392 56.7472C280.352 58.0139 293.049 66.4764 299.178 81.1002C306.282 98.0474 296.623 96.7934 293.693 98.0218Z" fill="#F0DB4F"/>
<path d="M294.428 98.2679C293.199 95.3371 285.383 88.5746 302.057 81.5855C316.134 75.6849 331.666 78.3195 335.702 80.9671C334.436 84.9269 325.973 97.6239 311.349 103.754C294.402 110.857 295.656 101.199 294.428 98.2679Z" fill="#F0DB4F"/>
<path d="M293.297 98.6229C294.525 101.554 302.341 108.316 285.667 115.305C271.59 121.206 256.059 118.571 252.022 115.924C253.289 111.964 261.751 99.2669 276.375 93.1373C293.322 86.0337 292.068 95.6922 293.297 98.6229Z" fill="#F0DB4F"/>
<path d="M294.396 98.7614C295.6 95.8204 294.855 85.512 311.587 92.3601C325.714 98.1418 334.833 110.987 335.815 115.713C332.119 117.618 317.158 120.612 302.483 114.606C285.476 107.645 293.192 101.702 294.396 98.7614Z" fill="#F0DB4F"/>
<path d="M293.346 98.2129C292.142 101.154 292.887 111.462 276.154 104.614C262.028 98.8325 252.908 85.987 251.926 81.2608C255.622 79.3565 270.584 76.3623 285.259 82.3685C302.266 89.329 294.549 95.2718 293.346 98.2129Z" fill="#F0DB4F"/>
<path d="M293.554 99.1212C296.495 100.325 306.804 99.5801 299.956 116.312C294.174 130.439 281.328 139.558 276.602 140.54C274.698 136.845 271.704 121.883 277.71 107.208C284.67 90.2011 290.613 97.9175 293.554 99.1212Z" fill="#F0DB4F"/>
<path d="M294.103 98.0705C291.162 96.8668 280.853 97.6115 287.702 80.8793C293.483 66.7529 306.329 57.6334 311.055 56.6514C312.959 60.3471 315.954 75.3091 309.947 89.984C302.987 106.991 297.044 99.2742 294.103 98.0705Z" fill="#F0DB4F"/>
<path d="M293.916 99.1165C296.351 99.0326 303.318 95.1152 303.816 109.57C304.237 121.774 298.141 132.635 295.149 134.898C292.652 132.824 285.836 122.882 285.399 110.205C284.893 95.5129 291.481 99.2004 293.916 99.1165Z" fill="#F3E272"/>
<path d="M293.968 98.1701C291.533 98.254 284.566 102.171 284.068 87.7165C283.647 75.5127 289.743 64.6518 292.735 62.3882C295.232 64.4627 302.048 74.4042 302.485 87.0818C302.991 101.774 296.403 98.0862 293.968 98.1701Z" fill="#F3E272"/>
<path d="M294.462 98.5668C294.378 96.132 290.46 89.1648 304.915 88.6667C317.119 88.2461 327.98 94.3418 330.244 97.3338C328.169 99.8312 318.228 106.647 305.55 107.084C290.858 107.59 294.546 101.002 294.462 98.5668Z" fill="#F3E272"/>
<path d="M293.515 98.5153C293.599 100.95 297.517 107.917 283.062 108.415C270.858 108.836 259.997 102.74 257.733 99.7483C259.808 97.251 269.749 90.4351 282.427 89.9983C297.119 89.4921 293.431 96.0804 293.515 98.5153Z" fill="#F3E272"/>
<path d="M294.269 98.9253C295.932 97.1442 298.088 89.4477 308.662 99.3166C317.588 107.649 320.958 119.639 320.443 123.355C317.21 123.654 305.361 121.444 296.087 112.788C285.341 102.758 292.607 100.706 294.269 98.9253Z" fill="#F3E272"/>
<path d="M293.637 98.2195C291.974 100.001 289.818 107.697 279.244 97.8282C270.318 89.4962 266.948 77.5061 267.463 73.7898C270.696 73.4908 282.545 75.7009 291.819 84.3565C302.565 94.3873 295.299 96.4385 293.637 98.2195Z" fill="#F3E272"/>
<path d="M293.558 98.924C295.339 100.586 303.035 102.743 293.166 113.316C284.834 122.243 272.844 125.613 269.128 125.098C268.829 121.865 271.039 110.015 279.695 100.742C289.725 89.9954 291.777 97.2616 293.558 98.924Z" fill="#F3E272"/>
<path d="M294.263 98.2916C292.482 96.6292 284.786 94.4727 294.655 83.8993C302.987 74.9726 314.977 71.603 318.693 72.1181C318.992 75.3509 316.782 87.2001 308.126 96.4735C298.096 107.22 296.044 99.954 294.263 98.2916Z" fill="#F3E272"/>
<path d="M293.793 98.8872C295.493 99.5854 301.494 99.0699 297.373 109.104C293.894 117.576 286.349 123.108 283.593 123.727C282.516 121.534 280.898 112.624 284.512 103.823C288.7 93.624 292.092 98.189 293.793 98.8872Z" fill="#F7ECA1"/>
<path d="M294.12 98.2562C292.42 97.5579 286.419 98.0735 290.54 88.0389C294.019 79.5672 301.564 74.0353 304.321 73.4166C305.398 75.6095 307.015 84.5196 303.401 93.3203C299.213 103.519 295.821 98.9544 294.12 98.2562Z" fill="#F7ECA1"/>
<path d="M294.043 98.7513C294.741 97.0509 294.226 91.0501 304.26 95.1707C312.732 98.6496 318.264 106.195 318.883 108.951C316.69 110.028 307.78 111.646 298.979 108.032C288.78 103.844 293.345 100.452 294.043 98.7513Z" fill="#F7ECA1"/>
<path d="M293.412 98.4235C292.714 100.124 293.23 106.125 283.195 102.004C274.723 98.5252 269.191 90.9799 268.573 88.2234C270.766 87.1465 279.676 85.5288 288.476 89.1428C298.676 93.331 294.111 96.7232 293.412 98.4235Z" fill="#F7ECA1"/>
<path d="M293.951 98.9281C295.647 98.2195 299.525 93.6117 303.707 103.621C307.238 112.071 305.814 121.318 304.302 123.705C301.99 122.916 294.546 117.759 290.878 108.981C286.628 98.8074 292.255 99.6367 293.951 98.9281Z" fill="#F7ECA1"/>
<path d="M293.736 98.25C292.04 98.9586 288.162 103.566 283.98 93.5572C280.449 85.1068 281.873 75.8598 283.385 73.4732C285.697 74.2623 293.141 79.4188 296.809 88.1974C301.059 98.3707 295.432 97.5414 293.736 98.25Z" fill="#F7ECA1"/>
<path d="M293.546 98.6275C294.254 100.324 298.862 104.202 288.853 108.384C280.403 111.915 271.156 110.491 268.769 108.979C269.558 106.667 274.715 99.2228 283.493 95.5552C293.666 91.3049 292.837 96.9315 293.546 98.6275Z" fill="#F7ECA1"/>
<path d="M294.224 98.4131C293.515 96.7171 288.907 92.8384 298.916 88.6566C307.367 85.1261 316.614 86.5498 319 88.0615C318.211 90.3736 313.055 97.8178 304.276 101.485C294.103 105.736 294.932 100.109 294.224 98.4131Z" fill="#F7ECA1"/>
<circle cx="293.914" cy="98.5688" r="5.62266" transform="rotate(157.258 293.914 98.5688)" fill="#F8BAFA"/>
<circle cx="295.289" cy="102.319" r="0.725504" transform="rotate(157.258 295.289 102.319)" fill="#F0DB4F"/>
<circle cx="292.274" cy="95.1263" r="0.725504" transform="rotate(157.258 292.274 95.1263)" fill="#F0DB4F"/>
<circle cx="290.067" cy="100.182" r="0.725504" transform="rotate(157.258 290.067 100.182)" fill="#F0DB4F"/>
<circle cx="297.594" cy="97.0263" r="0.725504" transform="rotate(157.258 297.594 97.0263)" fill="#F0DB4F"/>
<circle cx="297.237" cy="99.929" r="0.725504" transform="rotate(157.258 297.237 99.929)" fill="#F0DB4F"/>
<circle cx="290.493" cy="97.446" r="0.725504" transform="rotate(157.258 290.493 97.446)" fill="#F0DB4F"/>
<circle cx="292.387" cy="101.962" r="0.725504" transform="rotate(157.258 292.387 101.962)" fill="#F0DB4F"/>
<circle cx="295.344" cy="95.4127" r="0.725504" transform="rotate(157.258 295.344 95.4127)" fill="#F0DB4F"/>
</svg>
